<?xml version="1.0" encoding="UTF-8" standalone="no"?>
<!-- Generator: Adobe Illustrator 19.0.0, SVG Export Plug-In . SVG Version: 6.00 Build 0)  -->

<svg
   version="1.1"
   id="Layer_1"
   x="0px"
   y="0px"
   viewBox="0 0 60 60"
   xml:space="preserve"
   sodipodi:docname="bluetooth.svg"
   width="60"
   height="60"
   inkscape:export-filename="../res/img/bluetooth.png"
   inkscape:export-xdpi="96"
   inkscape:export-ydpi="96"
   inkscape:version="1.2.1 (9c6d41e410, 2022-07-14, custom)"
   xmlns:inkscape="http://www.inkscape.org/namespaces/inkscape"
   xmlns:sodipodi="http://sodipodi.sourceforge.net/DTD/sodipodi-0.dtd"
   xmlns="http://www.w3.org/2000/svg"
   xmlns:svg="http://www.w3.org/2000/svg"><defs
   id="defs2571" /><sodipodi:namedview
   id="namedview2569"
   pagecolor="#505050"
   bordercolor="#eeeeee"
   borderopacity="1"
   inkscape:showpageshadow="0"
   inkscape:pageopacity="0"
   inkscape:pagecheckerboard="0"
   inkscape:deskcolor="#505050"
   showgrid="false"
   inkscape:zoom="9.2280971"
   inkscape:cx="29.637746"
   inkscape:cy="23.569323"
   inkscape:window-width="1910"
   inkscape:window-height="1046"
   inkscape:window-x="0"
   inkscape:window-y="0"
   inkscape:window-maximized="1"
   inkscape:current-layer="Layer_1" />


<g
   id="g1069"
   transform="translate(-0.25738691,-0.16942491)"><g
     id="g2524"
     transform="matrix(0.06525386,0,0,0.06525386,13.552464,13.464502)"
     style="fill:#ffffff">
	<g
   id="g2522"
   style="fill:#ffffff">
		<polygon
   points="272.916,132.64 272.916,215.954 314.913,173.958 "
   id="polygon2520"
   style="fill:#ffffff" />
	</g>
</g><g
     id="g2530"
     transform="matrix(0.06525386,0,0,0.06525386,13.552464,13.464502)"
     style="fill:#ffffff">
	<g
   id="g2528"
   style="fill:#ffffff">
		<polygon
   points="272.916,297.633 272.916,380.947 314.913,339.629 "
   id="polygon2526"
   style="fill:#ffffff" />
	</g>
</g><g
     id="g2536"
     transform="matrix(0.06525386,0,0,0.06525386,13.552464,13.464502)"
     style="fill:#ffffff">
	<g
   id="g2534"
   style="fill:#ffffff">
		<path
   d="m 255.999,0 c -89.216,0 -161.8,72.584 -161.8,161.8 v 188.398 c 0,89.217 72.584,161.8 161.8,161.8 89.216,0 161.8,-72.584 161.8,-161.8 V 161.8 C 417.801,72.584 345.217,0 255.999,0 Z m 94.896,327.767 c 6.642,6.642 6.597,17.433 -0.098,24.021 l -82.933,81.593 c -10.624,10.453 -28.779,3.004 -28.779,-12.059 V 297.633 l -54.056,54.056 c -6.605,6.606 -17.317,6.606 -23.922,0 -6.606,-6.606 -6.606,-17.317 0,-23.923 l 70.972,-70.972 -70.972,-70.973 c -6.606,-6.606 -6.606,-17.317 0,-23.922 6.606,-6.606 17.317,-6.606 23.922,0 l 54.056,54.056 V 92.267 c 0,-14.965 18.103,-22.562 28.779,-12.059 l 82.933,81.593 c 6.697,6.587 6.74,17.379 0.098,24.021 l -70.972,70.973 z"
   id="path2532"
   style="fill:#ffffff" />
	</g>
</g></g>
<g
   id="g2538"
   transform="matrix(0.06525386,0,0,0.06525386,3.1265943,5.5487988)"
   style="fill:#ffffff">
</g>
<g
   id="g2540"
   transform="matrix(0.06525386,0,0,0.06525386,3.1265943,5.5487988)"
   style="fill:#ffffff">
</g>
<g
   id="g2542"
   transform="matrix(0.06525386,0,0,0.06525386,3.1265943,5.5487988)"
   style="display:inline;fill:#ffffff">
</g>
<g
   id="g2544"
   transform="matrix(0.06525386,0,0,0.06525386,3.1265943,5.5487988)"
   style="fill:#ffffff">
</g>
<g
   id="g2546"
   transform="matrix(0.06525386,0,0,0.06525386,3.1265943,5.5487988)"
   style="fill:#ffffff">
</g>
<g
   id="g2548"
   transform="matrix(0.06525386,0,0,0.06525386,3.1265943,5.5487988)"
   style="fill:#ffffff">
</g>
<g
   id="g2550"
   transform="matrix(0.06525386,0,0,0.06525386,3.1265943,5.5487988)"
   style="fill:#ffffff">
</g>
<g
   id="g2552"
   transform="matrix(0.06525386,0,0,0.06525386,3.1265943,5.5487988)"
   style="fill:#ffffff">
</g>
<g
   id="g2554"
   transform="matrix(0.06525386,0,0,0.06525386,3.1265943,5.5487988)"
   style="fill:#ffffff">
</g>
<g
   id="g2556"
   transform="matrix(0.06525386,0,0,0.06525386,3.1265943,5.5487988)"
   style="fill:#ffffff">
</g>
<g
   id="g2558"
   transform="matrix(0.06525386,0,0,0.06525386,3.1265943,5.5487988)"
   style="fill:#ffffff">
</g>
<g
   id="g2560"
   transform="matrix(0.06525386,0,0,0.06525386,3.1265943,5.5487988)"
   style="fill:#ffffff">
</g>
<g
   id="g2562"
   transform="matrix(0.06525386,0,0,0.06525386,3.1265943,5.5487988)"
   style="fill:#ffffff">
</g>
<g
   id="g2564"
   transform="matrix(0.06525386,0,0,0.06525386,3.1265943,5.5487988)"
   style="fill:#ffffff">
</g>
<g
   id="g2566"
   transform="matrix(0.06525386,0,0,0.06525386,3.1265943,5.5487988)"
   style="fill:#ffffff">
</g>
</svg>
