<?xml version="1.0" encoding="UTF-8" standalone="no"?>
<!-- Generator: Adobe Illustrator 16.0.0, SVG Export Plug-In . SVG Version: 6.00 Build 0)  -->

<svg
   version="1.1"
   id="Layer_1"
   x="0px"
   y="0px"
   width="30"
   height="30"
   viewBox="0 0 30 30"
   enable-background="new 0 0 512 512"
   xml:space="preserve"
   sodipodi:docname="brightness.svg"
   inkscape:export-filename="../res/img/brightness.png"
   inkscape:export-xdpi="96"
   inkscape:export-ydpi="96"
   inkscape:version="1.2.1 (9c6d41e410, 2022-07-14, custom)"
   xmlns:inkscape="http://www.inkscape.org/namespaces/inkscape"
   xmlns:sodipodi="http://sodipodi.sourceforge.net/DTD/sodipodi-0.dtd"
   xmlns="http://www.w3.org/2000/svg"
   xmlns:svg="http://www.w3.org/2000/svg"><defs
   id="defs1042" /><sodipodi:namedview
   id="namedview1040"
   pagecolor="#505050"
   bordercolor="#eeeeee"
   borderopacity="1"
   inkscape:showpageshadow="0"
   inkscape:pageopacity="0"
   inkscape:pagecheckerboard="0"
   inkscape:deskcolor="#505050"
   showgrid="false"
   inkscape:zoom="18.495262"
   inkscape:cx="17.382831"
   inkscape:cy="21.059448"
   inkscape:window-width="1910"
   inkscape:window-height="1046"
   inkscape:window-x="0"
   inkscape:window-y="0"
   inkscape:window-maximized="1"
   inkscape:current-layer="Layer_1" />
<g
   id="g1037"
   transform="matrix(0.04719583,0,0,0.04719583,5.7808298,6.0369897)"
   style="fill:#ffffff;stroke:none;stroke-opacity:1">
	<g
   id="g1035"
   style="fill:#ffffff;stroke:none;stroke-opacity:1"
   transform="matrix(0.72219015,0,0,0.72219015,8.830186,6.6991066)">
		<path
   fill-rule="evenodd"
   clip-rule="evenodd"
   d="m 106.785,224.104 h -75 v 49.991 h 75 z M 281.767,24.114 h -49.991 v 75 h 49.991 z m -201.754,366.4 35.343,35.371 53.029,-53.029 -35.344,-35.37 z M 433.557,107.685 398.186,72.341 345.185,125.37 380.5,160.713 Z m -265.172,17.685 -53.029,-53.029 -35.343,35.344 53.028,53.029 z m 176.8,247.485 53.001,53.029 35.371,-35.371 -53.057,-53.028 z m 61.572,-148.751 v 49.991 h 75.028 V 224.104 Z M 231.776,474.086 h 49.991 v -75 H 231.776 Z M 257.191,149.81 c -54.711,0 -99.032,44.348 -99.032,99.06 0,54.684 44.321,99.032 99.032,99.032 54.684,0 99.06,-44.349 99.06,-99.032 0,-54.712 -44.376,-99.06 -99.06,-99.06 z m 0,148.969 c -27.613,0 -49.991,-22.379 -49.991,-49.992 0,-27.613 22.378,-49.964 49.991,-49.964 27.586,0 49.964,22.352 49.964,49.964 0,27.612 -22.378,49.992 -49.964,49.992 z"
   id="path1033"
   style="fill:#ffffff;stroke:none;stroke-opacity:1" />
	</g>
</g>
</svg>
