<?xml version="1.0" encoding="UTF-8" standalone="no"?>
<!-- Generator: Adobe Illustrator 18.0.0, SVG Export Plug-In . SVG Version: 6.00 Build 0)  -->

<svg
   version="1.1"
   id="Capa_1"
   x="0px"
   y="0px"
   viewBox="0 0 60.000002 60.000002"
   xml:space="preserve"
   sodipodi:docname="display.svg"
   width="60"
   height="60"
   inkscape:version="1.2.1 (9c6d41e410, 2022-07-14, custom)"
   inkscape:export-filename="../res/img/display.png"
   inkscape:export-xdpi="96"
   inkscape:export-ydpi="96"
   xmlns:inkscape="http://www.inkscape.org/namespaces/inkscape"
   xmlns:sodipodi="http://sodipodi.sourceforge.net/DTD/sodipodi-0.dtd"
   xmlns="http://www.w3.org/2000/svg"
   xmlns:svg="http://www.w3.org/2000/svg"><defs
   id="defs1222" /><sodipodi:namedview
   id="namedview1220"
   pagecolor="#505050"
   bordercolor="#eeeeee"
   borderopacity="1"
   inkscape:showpageshadow="0"
   inkscape:pageopacity="0"
   inkscape:pagecheckerboard="0"
   inkscape:deskcolor="#505050"
   showgrid="false"
   inkscape:zoom="14.396044"
   inkscape:cx="27.820143"
   inkscape:cy="33.655079"
   inkscape:window-width="1910"
   inkscape:window-height="1046"
   inkscape:window-x="0"
   inkscape:window-y="0"
   inkscape:window-maximized="1"
   inkscape:current-layer="Capa_1" />
<path
   d="M 44.906127,36.850487 V 17.038498 H 15.093873 v 19.811989 h 12.625124 v 2.825544 h -4.518135 l -1.317324,3.285471 H 38.114106 L 36.799772,39.676031 H 32.281456 V 36.850487 Z M 17.777832,19.835671 H 42.222075 V 34.050413 H 17.777832 Z"
   id="path1187"
   style="fill:#ffffff;stroke-width:0.0906434" />
<g
   id="g1189"
   transform="matrix(0.09064368,0,0,0.09064368,14.937654,18.672872)"
   style="fill:#ffffff">
</g>
<g
   id="g1191"
   transform="matrix(0.09064368,0,0,0.09064368,14.937654,18.672872)"
   style="fill:#ffffff">
</g>
<g
   id="g1193"
   transform="matrix(0.09064368,0,0,0.09064368,14.937654,18.672872)"
   style="fill:#ffffff">
</g>
<g
   id="g1195"
   transform="matrix(0.09064368,0,0,0.09064368,14.937654,18.672872)"
   style="fill:#ffffff">
</g>
<g
   id="g1197"
   transform="matrix(0.09064368,0,0,0.09064368,14.937654,18.672872)"
   style="fill:#ffffff">
</g>
<g
   id="g1199"
   transform="matrix(0.09064368,0,0,0.09064368,14.937654,18.672872)"
   style="fill:#ffffff">
</g>
<g
   id="g1201"
   transform="matrix(0.09064368,0,0,0.09064368,14.937654,18.672872)"
   style="fill:#ffffff">
</g>
<g
   id="g1203"
   transform="matrix(0.09064368,0,0,0.09064368,14.937654,18.672872)"
   style="fill:#ffffff">
</g>
<g
   id="g1205"
   transform="matrix(0.09064368,0,0,0.09064368,14.937654,18.672872)"
   style="fill:#ffffff">
</g>
<g
   id="g1207"
   transform="matrix(0.09064368,0,0,0.09064368,14.937654,18.672872)"
   style="fill:#ffffff">
</g>
<g
   id="g1209"
   transform="matrix(0.09064368,0,0,0.09064368,14.937654,18.672872)"
   style="fill:#ffffff">
</g>
<g
   id="g1211"
   transform="matrix(0.09064368,0,0,0.09064368,14.937654,18.672872)"
   style="fill:#ffffff">
</g>
<g
   id="g1213"
   transform="matrix(0.09064368,0,0,0.09064368,14.937654,18.672872)"
   style="fill:#ffffff">
</g>
<g
   id="g1215"
   transform="matrix(0.09064368,0,0,0.09064368,14.937654,18.672872)"
   style="fill:#ffffff">
</g>
<g
   id="g1217"
   transform="matrix(0.09064368,0,0,0.09064368,14.937654,18.672872)"
   style="fill:#ffffff">
</g>
</svg>
