<?xml version="1.0" encoding="UTF-8" standalone="no"?>
<!-- Svg Vector Icons : http://www.onlinewebfonts.com/icon -->

<svg
   version="1.1"
   x="0px"
   y="0px"
   viewBox="0 0 60 60"
   enable-background="new 0 0 1000 1000"
   xml:space="preserve"
   id="svg2953"
   sodipodi:docname="exit.svg"
   width="60"
   height="60"
   inkscape:export-filename="../res/img/exit.png"
   inkscape:export-xdpi="96"
   inkscape:export-ydpi="96"
   inkscape:version="1.2.1 (9c6d41e410, 2022-07-14, custom)"
   xmlns:inkscape="http://www.inkscape.org/namespaces/inkscape"
   xmlns:sodipodi="http://sodipodi.sourceforge.net/DTD/sodipodi-0.dtd"
   xmlns="http://www.w3.org/2000/svg"
   xmlns:svg="http://www.w3.org/2000/svg"><defs
   id="defs2957" /><sodipodi:namedview
   id="namedview2955"
   pagecolor="#505050"
   bordercolor="#eeeeee"
   borderopacity="1"
   inkscape:showpageshadow="0"
   inkscape:pageopacity="0"
   inkscape:pagecheckerboard="0"
   inkscape:deskcolor="#505050"
   showgrid="false"
   inkscape:zoom="6.696"
   inkscape:cx="26.35902"
   inkscape:cy="39.053166"
   inkscape:window-width="1910"
   inkscape:window-height="1046"
   inkscape:window-x="0"
   inkscape:window-y="0"
   inkscape:window-maximized="1"
   inkscape:current-layer="svg2953" />
<metadata
   id="metadata2945"> Svg Vector Icons : http://www.onlinewebfonts.com/icon </metadata>
<g
   id="g2951"
   transform="matrix(0.03417225,0,0,0.03417225,12.913448,12.914212)"
   style="fill:#ffffff"><path
     d="M 696.5,234.1 V 68.9 C 696.5,42.5 674.9,21 648.6,21 H 57.9 C 31.6,21 10,42.5 10,68.9 v 676.8 c 0,17.5 10.4,34.3 25.5,42.3 l 364,188.4 c 16,7.9 35.1,-3.2 35.1,-21.6 V 771.3 h 213.9 c 26.4,0 47.9,-21.6 47.9,-47.9 V 461.6 h -95.8 v 190 c 0,13.6 -10.3,24 -23.9,24 H 435.5 V 269.2 c 0,-17.5 -10.4,-34.3 -25.6,-42.3 L 195.2,116.7 h 381.6 c 13.6,0 23.9,10.4 23.9,24 v 94.2 h 95.8 z"
     id="path2947"
     style="fill:#ffffff" /><path
     d="m 819.4,155.8 155.7,155.7 c 19.9,20 19.9,49.5 0,69.4 L 819.4,536.6 c -20,19.9 -50.3,20.7 -70.3,0.8 -19.1,-19.2 -16.8,-51.1 1.6,-70.3 l 70.2,-69.4 H 548.8 c -13.6,0 -27.2,-5.6 -35.9,-16 -22.4,-23.9 -16.8,-66.3 12,-82.2 7.2,-4 16,-6.4 24,-6.4 H 821 c 0,0 -69.4,-69.5 -70.2,-69.5 -18.4,-18.3 -20.7,-51.1 -1.6,-69.4 19.1,-19.1 50.2,-18.3 70.2,1.6"
     id="path2949"
     style="fill:#ffffff" /></g>
</svg>
