<?xml version="1.0" encoding="UTF-8" standalone="no"?>
<!-- Svg Vector Icons : http://www.onlinewebfonts.com/icon -->

<svg
   version="1.1"
   x="0px"
   y="0px"
   viewBox="0 0 30 30"
   enable-background="new 0 0 1000 1000"
   xml:space="preserve"
   id="svg2869"
   sodipodi:docname="lock.svg"
   width="30"
   height="30"
   inkscape:export-filename="../res/img/lock.png"
   inkscape:export-xdpi="96"
   inkscape:export-ydpi="96"
   inkscape:version="1.2.1 (9c6d41e410, 2022-07-14, custom)"
   xmlns:inkscape="http://www.inkscape.org/namespaces/inkscape"
   xmlns:sodipodi="http://sodipodi.sourceforge.net/DTD/sodipodi-0.dtd"
   xmlns="http://www.w3.org/2000/svg"
   xmlns:svg="http://www.w3.org/2000/svg"><defs
   id="defs2873" /><sodipodi:namedview
   id="namedview2871"
   pagecolor="#505050"
   bordercolor="#eeeeee"
   borderopacity="1"
   inkscape:showpageshadow="0"
   inkscape:pageopacity="0"
   inkscape:pagecheckerboard="0"
   inkscape:deskcolor="#505050"
   showgrid="false"
   inkscape:zoom="13.392"
   inkscape:cx="22.588112"
   inkscape:cy="23.48417"
   inkscape:window-width="1910"
   inkscape:window-height="1046"
   inkscape:window-x="0"
   inkscape:window-y="0"
   inkscape:window-maximized="1"
   inkscape:current-layer="svg2869" />
<metadata
   id="metadata2863"> Svg Vector Icons : http://www.onlinewebfonts.com/icon </metadata>
<g
   id="g2867"
   transform="matrix(0.0167374,0,0,0.0167374,6.7907245,6.5645835)"
   style="fill:#ffffff"><path
     d="M 806.3,393.3 H 782.5 V 298.4 C 782.4,134.6 656,10 500,10 344,10 217.5,134.6 217.5,298.4 v 94.9 h -23.8 c -52.9,0 -95.8,42.8 -95.8,95.5 v 405.6 c 0,52.8 42.9,95.6 95.8,95.6 h 612.5 c 52.9,0 95.8,-42.8 95.8,-95.6 V 488.9 c 0,-52.8 -42.9,-95.6 -95.7,-95.6 z M 337.6,310.9 c 0,-97.3 72.7,-176.1 162.4,-176.1 89.7,0 162.3,78.9 162.3,176.1 v 85.3 H 337.6 Z m 202.7,378 v 106.4 c 0,22.3 -18,40.3 -40.3,40.3 -22.3,0 -40.3,-18.1 -40.3,-40.3 V 688.9 c -24.1,-14 -40.4,-39.9 -40.4,-69.8 0,-44.5 36.2,-80.7 80.7,-80.7 44.5,0 80.6,36.2 80.6,80.7 0.1,29.9 -16.2,55.8 -40.3,69.8 z"
     id="path2865"
     style="fill:#ffffff" /></g>
</svg>
