<?xml version="1.0" encoding="UTF-8" standalone="no"?>
<!-- Generator: Adobe Illustrator 19.0.0, SVG Export Plug-In . SVG Version: 6.00 Build 0)  -->

<svg
   version="1.1"
   id="Capa_1"
   x="0px"
   y="0px"
   viewBox="0 0 30.000001 30.000001"
   xml:space="preserve"
   sodipodi:docname="pause.svg"
   width="30"
   height="30"
   inkscape:export-filename="../res/img/pause.png"
   inkscape:export-xdpi="96"
   inkscape:export-ydpi="96"
   inkscape:version="1.2.1 (9c6d41e410, 2022-07-14, custom)"
   xmlns:inkscape="http://www.inkscape.org/namespaces/inkscape"
   xmlns:sodipodi="http://sodipodi.sourceforge.net/DTD/sodipodi-0.dtd"
   xmlns="http://www.w3.org/2000/svg"
   xmlns:svg="http://www.w3.org/2000/svg"><defs
   id="defs2757" /><sodipodi:namedview
   id="namedview2755"
   pagecolor="#505050"
   bordercolor="#eeeeee"
   borderopacity="1"
   inkscape:showpageshadow="0"
   inkscape:pageopacity="0"
   inkscape:pagecheckerboard="0"
   inkscape:deskcolor="#505050"
   showgrid="false"
   inkscape:zoom="17.581448"
   inkscape:cx="23.8035"
   inkscape:cy="23.8035"
   inkscape:window-width="1910"
   inkscape:window-height="1046"
   inkscape:window-x="0"
   inkscape:window-y="0"
   inkscape:window-maximized="1"
   inkscape:current-layer="Capa_1" />
<g
   id="g2722"
   transform="matrix(0.29409815,0,0,0.29409815,8.2566133,7.5014707)"
   style="fill:#ffffff">
	<path
   d="m 17.991,40.976 c 0,3.662 -2.969,6.631 -6.631,6.631 v 0 c -3.662,0 -6.631,-2.969 -6.631,-6.631 V 6.631 C 4.729,2.969 7.698,0 11.36,0 v 0 c 3.662,0 6.631,2.969 6.631,6.631 z"
   id="path2718"
   style="fill:#ffffff" />
	<path
   d="m 42.877,40.976 c 0,3.662 -2.969,6.631 -6.631,6.631 v 0 c -3.662,0 -6.631,-2.969 -6.631,-6.631 V 6.631 C 29.616,2.969 32.585,0 36.246,0 v 0 c 3.662,0 6.631,2.969 6.631,6.631 z"
   id="path2720"
   style="fill:#ffffff" />
</g>
<g
   id="g2724"
   transform="matrix(0.29409815,0,0,0.29409815,8.2566133,7.5014707)"
   style="fill:#ffffff">
</g>
<g
   id="g2726"
   transform="matrix(0.29409815,0,0,0.29409815,8.2566133,7.5014707)"
   style="fill:#ffffff">
</g>
<g
   id="g2728"
   transform="matrix(0.29409815,0,0,0.29409815,8.2566133,7.5014707)"
   style="fill:#ffffff">
</g>
<g
   id="g2730"
   transform="matrix(0.29409815,0,0,0.29409815,8.2566133,7.5014707)"
   style="fill:#ffffff">
</g>
<g
   id="g2732"
   transform="matrix(0.29409815,0,0,0.29409815,8.2566133,7.5014707)"
   style="fill:#ffffff">
</g>
<g
   id="g2734"
   transform="matrix(0.29409815,0,0,0.29409815,8.2566133,7.5014707)"
   style="fill:#ffffff">
</g>
<g
   id="g2736"
   transform="matrix(0.29409815,0,0,0.29409815,8.2566133,7.5014707)"
   style="fill:#ffffff">
</g>
<g
   id="g2738"
   transform="matrix(0.29409815,0,0,0.29409815,8.2566133,7.5014707)"
   style="fill:#ffffff">
</g>
<g
   id="g2740"
   transform="matrix(0.29409815,0,0,0.29409815,8.2566133,7.5014707)"
   style="fill:#ffffff">
</g>
<g
   id="g2742"
   transform="matrix(0.29409815,0,0,0.29409815,8.2566133,7.5014707)"
   style="fill:#ffffff">
</g>
<g
   id="g2744"
   transform="matrix(0.29409815,0,0,0.29409815,8.2566133,7.5014707)"
   style="fill:#ffffff">
</g>
<g
   id="g2746"
   transform="matrix(0.29409815,0,0,0.29409815,8.2566133,7.5014707)"
   style="fill:#ffffff">
</g>
<g
   id="g2748"
   transform="matrix(0.29409815,0,0,0.29409815,8.2566133,7.5014707)"
   style="fill:#ffffff">
</g>
<g
   id="g2750"
   transform="matrix(0.29409815,0,0,0.29409815,8.2566133,7.5014707)"
   style="fill:#ffffff">
</g>
<g
   id="g2752"
   transform="matrix(0.29409815,0,0,0.29409815,8.2566133,7.5014707)"
   style="fill:#ffffff">
</g>
</svg>
