<?xml version="1.0" encoding="UTF-8" standalone="no"?>
<!-- Svg Vector Icons : http://www.onlinewebfonts.com/icon -->

<svg
   version="1.1"
   x="0px"
   y="0px"
   viewBox="0 0 60 60"
   enable-background="new 0 0 1000 1000"
   xml:space="preserve"
   id="svg3108"
   sodipodi:docname="reboot.svg"
   width="60"
   height="60"
   inkscape:export-filename="../res/img/reboot.png"
   inkscape:export-xdpi="96"
   inkscape:export-ydpi="96"
   inkscape:version="1.2.1 (9c6d41e410, 2022-07-14, custom)"
   xmlns:inkscape="http://www.inkscape.org/namespaces/inkscape"
   xmlns:sodipodi="http://sodipodi.sourceforge.net/DTD/sodipodi-0.dtd"
   xmlns="http://www.w3.org/2000/svg"
   xmlns:svg="http://www.w3.org/2000/svg"><defs
   id="defs3112" /><sodipodi:namedview
   id="namedview3110"
   pagecolor="#505050"
   bordercolor="#eeeeee"
   borderopacity="1"
   inkscape:showpageshadow="0"
   inkscape:pageopacity="0"
   inkscape:pagecheckerboard="0"
   inkscape:deskcolor="#505050"
   showgrid="false"
   inkscape:zoom="6.696"
   inkscape:cx="39.501195"
   inkscape:cy="39.650538"
   inkscape:window-width="1910"
   inkscape:window-height="1046"
   inkscape:window-x="0"
   inkscape:window-y="0"
   inkscape:window-maximized="1"
   inkscape:current-layer="svg3108" />
<metadata
   id="metadata3100"> Svg Vector Icons : http://www.onlinewebfonts.com/icon </metadata>
<g
   id="g3106"
   transform="matrix(0.03565112,0,0,0.03565112,12.174555,12.174415)"
   style="fill:#ffffff"><g
     transform="matrix(0.1,0,0,-0.1,0,512)"
     id="g3104"
     style="fill:#ffffff"><path
       d="M 4753.2,4961 C 4653.3,4913 4505.3,4772.7 3632.9,3898.4 L 2629.8,2893.4 3652.2,1873 c 964.6,-962.7 1030,-1024.2 1135.6,-1062.6 303.6,-111.5 638,17.3 776.3,301.7 46.1,94.2 53.8,132.6 53.8,272.9 0,230.6 -46.1,307.5 -361.3,628.3 l -249.8,255.6 h 75 c 138.3,-1.9 488.1,-55.7 668.7,-103.8 488.1,-134.5 918.5,-384.3 1277.8,-743.6 409.3,-407.4 666.8,-889.7 791.7,-1477.7 61.5,-288.2 61.5,-766.7 1.9,-1066.5 -119.1,-599.5 -370.8,-1070.3 -801.3,-1498.8 -442,-443.9 -924.3,-695.6 -1537.2,-799.4 -196,-34.6 -282.5,-38.4 -566.9,-30.8 -367,11.5 -507.3,34.6 -818.6,138.4 -424.7,140.3 -787.8,367 -1114.5,691.8 -307.4,305.5 -501.5,601.4 -651.4,985.8 -292.1,761 -255.6,1593 105.7,2311.7 101.8,199.8 142.2,355.5 124.9,484.2 -80.7,618.7 -870.5,805.1 -1212.5,286.3 -98,-144.1 -244,-478.5 -336.3,-759 -484.2,-1475.8 -90.2,-3128.4 1010.8,-4233.3 328.6,-330.5 672.5,-580.3 1078,-787.8 578.4,-294 1116.4,-428.5 1779.4,-443.9 563,-15.4 928.1,38.4 1437.3,205.6 1512.3,495.8 2576.8,1762.1 2836.2,3372.3 25,151.8 34.6,319 34.6,595.7 0,422.8 -25,639.9 -124.9,1035.7 -372.8,1489.2 -1554.6,2661.3 -3063,3036 -217.1,53.8 -515,99.9 -766.7,119.1 l -169.1,11.5 240.2,242.1 c 276.7,284.4 311.3,347.8 311.3,580.3 -1.9,103.8 -11.5,169.1 -42.3,232.5 -142.1,315.3 -516.8,455.6 -822.4,307.7 z"
       id="path3102"
       style="fill:#ffffff" /></g></g>
</svg>
