<?xml version="1.0" encoding="UTF-8" standalone="no"?>
<svg
   class="svg-icon"
   style="overflow:hidden;fill:currentColor"
   viewBox="0 0 60 60"
   version="1.1"
   id="svg3026"
   sodipodi:docname="shutdown.svg"
   width="60"
   height="60"
   inkscape:export-filename="../res/img/shutdown.png"
   inkscape:export-xdpi="96"
   inkscape:export-ydpi="96"
   inkscape:version="1.2.1 (9c6d41e410, 2022-07-14, custom)"
   xmlns:inkscape="http://www.inkscape.org/namespaces/inkscape"
   xmlns:sodipodi="http://sodipodi.sourceforge.net/DTD/sodipodi-0.dtd"
   xmlns="http://www.w3.org/2000/svg"
   xmlns:svg="http://www.w3.org/2000/svg">
  <defs
     id="defs3030" />
  <sodipodi:namedview
     id="namedview3028"
     pagecolor="#505050"
     bordercolor="#eeeeee"
     borderopacity="1"
     inkscape:showpageshadow="0"
     inkscape:pageopacity="0"
     inkscape:pagecheckerboard="0"
     inkscape:deskcolor="#505050"
     showgrid="false"
     inkscape:zoom="9.2476309"
     inkscape:cx="27.736834"
     inkscape:cy="27.088019"
     inkscape:window-width="1910"
     inkscape:window-height="1046"
     inkscape:window-x="0"
     inkscape:window-y="0"
     inkscape:window-maximized="1"
     inkscape:current-layer="svg3026" />
  <path
     d="m 38.945901,18.211589 q 1.569485,1.116046 2.790157,2.528588 1.220675,1.412542 2.092621,3.051765 0.87194,1.639218 1.325338,3.470232 0.453397,1.831011 0.453397,3.714377 0,3.243553 -1.238139,6.086023 -1.238137,2.842469 -3.348179,4.952516 -2.110047,2.110043 -4.952517,3.348182 -2.842469,1.238137 -6.086023,1.238137 -3.208703,0 -6.051136,-1.238137 -2.842436,-1.238139 -4.969979,-3.348182 -2.127544,-2.110047 -3.348179,-4.952516 -1.220635,-2.84247 -1.220676,-6.086023 0,-1.848478 0.435972,-3.627175 0.435973,-1.778696 1.238138,-3.38307 0.802166,-1.604373 1.987991,-2.999412 1.185826,-1.395039 2.65064,-2.511122 0.767279,-0.558028 1.656646,-0.418509 0.889372,0.139516 1.447397,0.871941 0.558022,0.73243 0.418505,1.639226 -0.139517,0.906791 -0.871946,1.464813 -2.197284,1.604373 -3.36564,3.941094 -1.168365,2.336724 -1.168401,5.022291 0,2.301871 0.871942,4.342176 0.871941,2.040309 2.389073,3.5574 1.517133,1.517089 3.557437,2.406495 2.040304,0.889406 4.342176,0.889373 2.301871,-4.1e-5 4.342175,-0.889373 2.040307,-0.889329 3.557399,-2.406495 1.517091,-1.517173 2.406497,-3.557437 0.889411,-2.040268 0.88937,-4.34218 0,-2.720419 -1.255563,-5.144341 -1.255563,-2.423921 -3.522625,-3.993408 -0.767279,-0.523134 -0.924218,-1.429966 -0.156945,-0.906834 0.366193,-1.674111 0.523136,-0.73243 1.429969,-0.889365 0.906832,-0.156945 1.674111,0.366193 z m -8.963385,12.869588 q -0.906832,0 -1.552021,-0.645222 -0.645186,-0.645229 -0.645226,-1.552025 V 15.630723 q 0,-0.906832 0.645226,-1.569484 0.645229,-0.662648 1.552021,-0.662648 0.941682,0 1.586868,0.662648 0.645186,0.662652 0.645229,1.569484 V 28.88393 q 0,0.906837 -0.645229,1.552025 -0.645227,0.645184 -1.586868,0.645184 z"
     id="path3024"
     style="fill:#ffffff;stroke-width:0.0393336" />
</svg>
