<?xml version="1.0" encoding="UTF-8" standalone="no"?>
<svg
   class="svg-icon"
   style="overflow:hidden;fill:currentColor"
   viewBox="0 0 30 30"
   version="1.1"
   id="svg3026"
   sodipodi:docname="shutdown.svg"
   width="30"
   height="30"
   inkscape:export-filename="../res/img/shutdown.png"
   inkscape:export-xdpi="96"
   inkscape:export-ydpi="96"
   inkscape:version="1.2.1 (9c6d41e410, 2022-07-14, custom)"
   xmlns:inkscape="http://www.inkscape.org/namespaces/inkscape"
   xmlns:sodipodi="http://sodipodi.sourceforge.net/DTD/sodipodi-0.dtd"
   xmlns="http://www.w3.org/2000/svg"
   xmlns:svg="http://www.w3.org/2000/svg">
  <defs
     id="defs3030" />
  <sodipodi:namedview
     id="namedview3028"
     pagecolor="#505050"
     bordercolor="#eeeeee"
     borderopacity="1"
     inkscape:showpageshadow="0"
     inkscape:pageopacity="0"
     inkscape:pagecheckerboard="0"
     inkscape:deskcolor="#505050"
     showgrid="false"
     inkscape:zoom="9.2476309"
     inkscape:cx="19.302241"
     inkscape:cy="6.3259445"
     inkscape:window-width="1910"
     inkscape:window-height="1046"
     inkscape:window-x="0"
     inkscape:window-y="0"
     inkscape:window-maximized="1"
     inkscape:current-layer="svg3026" />
  <path
     d="m 19.164643,10.159393 q 0.693415,0.493081 1.232721,1.117157 0.539307,0.624076 0.924542,1.348302 0.385232,0.724224 0.585548,1.533185 0.200316,0.80896 0.200316,1.641051 0,1.433036 -0.547023,2.688869 -0.547022,1.255833 -1.479261,2.188074 -0.932241,0.932239 -2.188074,1.479262 -1.255833,0.547022 -2.688869,0.547022 -1.417639,0 -2.673456,-0.547022 Q 11.275269,21.60827 10.335298,20.676031 9.3953265,19.74379 8.856037,18.487957 8.3167475,17.232124 8.3167294,15.799088 q 0,-0.816677 0.1926172,-1.602524 0.1926172,-0.785847 0.5470222,-1.494676 0.3544058,-0.708829 0.8783156,-1.325172 0.5239106,-0.616343 1.1710806,-1.10944 0.338992,-0.246543 0.731924,-0.184902 0.392934,0.06164 0.639475,0.385233 0.24654,0.323595 0.1849,0.724227 -0.06164,0.40063 -0.385235,0.64717 -0.970783,0.708829 -1.486975,1.741217 -0.516196,1.032389 -0.516212,2.218901 0,1.016991 0.385233,1.918419 0.385233,0.90143 1.055518,1.571697 0.670285,0.670266 1.571713,1.063215 0.901428,0.392949 1.918419,0.392934 1.016991,-1.8e-5 1.918419,-0.392934 0.901429,-0.392915 1.571696,-1.063215 0.670267,-0.670303 1.063216,-1.571713 0.392951,-0.901412 0.392933,-1.918421 0,-1.20191 -0.554721,-2.272824 -0.554721,-1.070914 -1.556333,-1.76433 -0.338992,-0.231126 -0.408329,-0.631774 -0.06934,-0.400649 0.161788,-0.73964 0.231127,-0.323595 0.631775,-0.3929306 0.400648,-0.06934 0.73964,0.1617876 z m -3.960118,5.68592 q -0.400648,0 -0.685699,-0.285066 -0.28505,-0.285069 -0.285068,-0.685701 V 9.0191394 q 0,-0.400648 0.285068,-0.6934145 0.285069,-0.292765 0.685699,-0.292765 0.416045,0 0.701095,0.292765 0.28505,0.2927665 0.285069,0.6934145 v 5.8554066 q 0,0.40065 -0.285069,0.685701 -0.285068,0.285049 -0.701095,0.285049 z"
     id="path3024"
     style="stroke-width:0.017378;fill:#ffffff" />
</svg>
