<?xml version="1.0" encoding="UTF-8" standalone="no"?>
<!-- Generator: Adobe Illustrator 19.0.0, SVG Export Plug-In . SVG Version: 6.00 Build 0)  -->

<svg
   version="1.1"
   id="Capa_1"
   x="0px"
   y="0px"
   viewBox="0 0 60.000002 60.000002"
   xml:space="preserve"
   sodipodi:docname="suspend.svg"
   width="60"
   height="60"
   inkscape:export-filename="../res/img/suspend.png"
   inkscape:export-xdpi="96"
   inkscape:export-ydpi="96"
   inkscape:version="1.2.1 (9c6d41e410, 2022-07-14, custom)"
   xmlns:inkscape="http://www.inkscape.org/namespaces/inkscape"
   xmlns:sodipodi="http://sodipodi.sourceforge.net/DTD/sodipodi-0.dtd"
   xmlns="http://www.w3.org/2000/svg"
   xmlns:svg="http://www.w3.org/2000/svg"><defs
   id="defs2757" /><sodipodi:namedview
   id="namedview2755"
   pagecolor="#505050"
   bordercolor="#eeeeee"
   borderopacity="1"
   inkscape:showpageshadow="0"
   inkscape:pageopacity="0"
   inkscape:pagecheckerboard="0"
   inkscape:deskcolor="#505050"
   showgrid="false"
   inkscape:zoom="8.790724"
   inkscape:cx="32.249903"
   inkscape:cy="20.874276"
   inkscape:window-width="1910"
   inkscape:window-height="1046"
   inkscape:window-x="0"
   inkscape:window-y="0"
   inkscape:window-maximized="1"
   inkscape:current-layer="Capa_1" />

<g
   id="g2724"
   transform="matrix(0.64315916,0,0,0.56684056,17.573775,20.421868)"
   style="fill:#ffffff">
</g>
<g
   id="g2726"
   transform="matrix(0.64315916,0,0,0.56684056,17.573775,20.421868)"
   style="fill:#ffffff">
</g>
<g
   id="g2728"
   transform="matrix(0.64315916,0,0,0.56684056,17.573775,20.421868)"
   style="fill:#ffffff">
</g>
<g
   id="g2730"
   transform="matrix(0.64315916,0,0,0.56684056,17.573775,20.421868)"
   style="fill:#ffffff">
</g>
<g
   id="g2732"
   transform="matrix(0.64315916,0,0,0.56684056,17.573775,20.421868)"
   style="fill:#ffffff">
</g>
<g
   id="g2734"
   transform="matrix(0.64315916,0,0,0.56684056,17.573775,20.421868)"
   style="fill:#ffffff">
</g>
<g
   id="g2736"
   transform="matrix(0.64315916,0,0,0.56684056,17.573775,20.421868)"
   style="fill:#ffffff">
</g>
<g
   id="g2738"
   transform="matrix(0.64315916,0,0,0.56684056,17.573775,20.421868)"
   style="fill:#ffffff">
</g>
<g
   id="g2740"
   transform="matrix(0.64315916,0,0,0.56684056,17.573775,20.421868)"
   style="fill:#ffffff">
</g>
<g
   id="g2742"
   transform="matrix(0.64315916,0,0,0.56684056,17.573775,20.421868)"
   style="fill:#ffffff">
</g>
<g
   id="g2744"
   transform="matrix(0.64315916,0,0,0.56684056,17.573775,20.421868)"
   style="fill:#ffffff">
</g>
<g
   id="g2746"
   transform="matrix(0.64315916,0,0,0.56684056,17.573775,20.421868)"
   style="fill:#ffffff">
</g>
<g
   id="g2748"
   transform="matrix(0.64315916,0,0,0.56684056,17.573775,20.421868)"
   style="fill:#ffffff">
</g>
<g
   id="g2750"
   transform="matrix(0.64315916,0,0,0.56684056,17.573775,20.421868)"
   style="fill:#ffffff">
</g>
<g
   id="g2752"
   transform="matrix(0.64315916,0,0,0.56684056,17.573775,20.421868)"
   style="fill:#ffffff">
</g>
<g
   id="g2380"
   transform="matrix(1,0,0,0.88133793,1.2224276,2.7275494)"><rect
     style="fill:#ffffff"
     id="rect2354"
     width="7.8278537"
     height="29.690388"
     x="17.660217"
     y="16.098291" /><rect
     style="fill:#ffffff"
     id="rect2354-3"
     width="7.8278537"
     height="29.690388"
     x="32.067074"
     y="16.100069" /></g></svg>
